# xmcd CD database file
#
# Track frame offsets:
#	150
#	11440
#	26611
#	39239
#	53165
#	71189
#	87966
#	101892
#	115578
#	131145
#	144737
#	160974
#
# Disc length: 2356 seconds
#
# Revision: 0
# Processed by: cddbd v1.5.2PL0 Copyright (c) Steve Scherf et al.
# Submitted via: CDex 1.51
#
DISCID=a209320c
DTITLE=Cooper, Lenny - The Grind
DYEAR=2014
DGENRE=Country
TTITLE0=Intro
TTITLE1=Back in the Woods (With Tyler Wood)
TTITLE2=Lights On
TTITLE3=Duramax (With Young Gunner)
TTITLE4=Life in the Pines
TTITLE5=Hell Yea (With Colt Ford and Demun Jones)
TTITLE6=She's So Country (With Cap Bailey)
TTITLE7=54'S
TTITLE8=Same Old Dust (With Sarah Ross)
TTITLE9=Flex That X
TTITLE10=Higher (With Bubba Sparxxx and Cypress Spring)
TTITLE11=Redneck Country Song (With Bucky Covington)
EXTD=YEAR: 2014
EXTT0=
EXTT1=
EXTT2=
EXTT3=
EXTT4=
EXTT5=
EXTT6=
EXTT7=
EXTT8=
EXTT9=
EXTT10=
EXTT11=
PLAYORDER=
